# xmcd
#
# Track frame offsets:
#	150
#	23373
#	42863
#	64663
#	85872
#	108108
#	127109
#	143798
#	164379
#	182133
#	196968
#	214040
#	240037
#	266387
#	283478
#	300866
#	315140
#
# Disc length: 4574 seconds
#
# Revision: 3
# Processed by: cddbd v1.5.1PL0 Copyright (c) Steve Scherf et al.
# Submitted via: MusicWizard 7.1.1b
#
DISCID=d711dc11
DTITLE=Abba - The Definitive Collection [CD 2/2)
DYEAR=2001
DGENRE=Pop
TTITLE0=Voulez-Vous
TTITLE1=Angeleyes
TTITLE2=Gimme! Gimme! Gimme! (A Man After Midnight)
TTITLE3=I Have A Dream
TTITLE4=The Winner Takes It All
TTITLE5=Super Trouper
TTITLE6=On And On And On
TTITLE7=Lay All Your Love On Me
TTITLE8=One Of Us
TTITLE9=When All Is Said And Done
TTITLE10=Head Over Heals
TTITLE11=The Visitors (Crackin' Up)
TTITLE12=The Day Before You Came
TTITLE13=Under Attack
TTITLE14=Thank You For The Music
TTITLE15=Ring Ring (1974 Remix, Single Version)
TTITLE16=Voulez-Vous (Extended Remix, 1979 Us Promo)
EXTD=YEAR: 2001
EXTT0=
EXTT1=
EXTT2=
EXTT3=
EXTT4=
EXTT5=
EXTT6=
EXTT7=
EXTT8=
EXTT9=
EXTT10=
EXTT11=
EXTT12=
EXTT13=
EXTT14=
EXTT15=
EXTT16=
PLAYORDER=
